<?xml version="1.0" encoding="UTF-8"?>
<svg xmlns="http://www.w3.org/2000/svg" xmlns:xlink="http://www.w3.org/1999/xlink" width="512pt" height="512pt" viewBox="0 0 512 512" version="1.1">
<g id="surface1">
<rect x="0" y="0" width="512" height="512" style="fill:rgb(4.699707%,32.899475%,37.599182%);fill-opacity:1;stroke:none;"/>
<path style=" stroke:none;fill-rule:nonzero;fill:rgb(100%,100%,100%);fill-opacity:1;" d="M 261.328125 319.949219 C 225.429688 319.949219 196.328125 290.847656 196.328125 254.949219 C 196.328125 219.046875 225.429688 189.949219 261.328125 189.949219 C 297.226562 189.949219 326.328125 219.046875 326.328125 254.949219 C 326.328125 290.847656 297.226562 319.949219 261.328125 319.949219 M 253.203125 138.199219 C 260.589844 138.199219 266.578125 144.1875 266.578125 151.574219 C 266.578125 158.960938 260.589844 164.949219 253.203125 164.949219 C 245.816406 164.949219 239.828125 158.960938 239.828125 151.574219 C 239.828125 144.1875 245.816406 138.199219 253.203125 138.199219 M 388.628906 173.523438 L 242.882812 105.558594 C 237.875 103.226562 231.925781 105.390625 229.59375 110.398438 L 201.179688 171.328125 L 175.894531 169.875 C 174.660156 169.804688 173.507812 170.5 172.980469 171.625 L 140.730469 240.785156 C 140.203125 241.914062 140.414062 243.246094 141.261719 244.144531 L 158.625 262.582031 L 146.957031 287.609375 L 136.453125 282.710938 C 135.953125 282.476562 135.359375 282.695312 135.125 283.195312 L 124.960938 305 C 124.726562 305.5 124.941406 306.09375 125.441406 306.328125 L 135.945312 311.222656 L 129.84375 324.308594 C 127.507812 329.3125 129.675781 335.261719 134.679688 337.597656 L 280.429688 405.5625 C 285.433594 407.894531 291.386719 405.730469 293.71875 400.726562 L 393.46875 186.8125 C 395.800781 181.808594 393.636719 175.859375 388.628906 173.523438 "/>
<path style=" stroke:none;fill-rule:nonzero;fill:rgb(100%,100%,100%);fill-opacity:1;" d="M 486.460938 104.5 L 318.460938 104.5 L 318.460938 113.5 L 486.460938 113.5 L 486.460938 218.449219 L 495.460938 218.449219 L 495.460938 104.5 Z M 486.460938 104.5 "/>
<path style=" stroke:none;fill-rule:nonzero;fill:rgb(100%,100%,100%);fill-opacity:1;" d="M 25.539062 407.5 L 193.539062 407.5 L 193.539062 398.5 L 25.539062 398.5 L 25.539062 293.550781 L 16.539062 293.550781 L 16.539062 407.5 Z M 25.539062 407.5 "/>
<path style=" stroke:none;fill-rule:nonzero;fill:rgb(100%,100%,100%);fill-opacity:1;" d="M 109.382812 174.164062 C 112.050781 170.398438 113.816406 166.496094 114.679688 162.453125 C 115.542969 158.414062 115.972656 154.789062 115.972656 151.570312 C 115.972656 147.097656 115.445312 142.550781 114.382812 137.917969 C 113.324219 133.292969 111.5 129.25 108.914062 125.796875 C 106.164062 122.113281 102.558594 119.25 98.085938 117.207031 C 93.613281 115.167969 88.042969 114.148438 81.375 114.148438 L 64.785156 114.148438 L 64.785156 187.929688 L 76.789062 187.929688 C 85.257812 187.929688 92.144531 186.617188 97.441406 183.988281 C 102.734375 181.363281 106.714844 178.085938 109.382812 174.164062 M 145.15625 145.683594 C 145.15625 154.394531 143.449219 162.101562 140.039062 168.808594 C 136.625 175.515625 131.898438 181.066406 125.859375 185.460938 C 119.894531 189.855469 113.34375 193.070312 106.207031 195.109375 C 99.066406 197.152344 91.496094 198.167969 83.496094 198.167969 L 64.785156 198.167969 L 64.785156 248.769531 C 64.785156 251.515625 65.234375 253.929688 66.136719 256.007812 C 67.039062 258.085938 68.902344 259.675781 71.726562 260.769531 C 73.140625 261.320312 75.628906 261.832031 79.199219 262.300781 C 82.769531 262.773438 86.042969 263.046875 89.027344 263.125 L 89.027344 271.480469 L 17.363281 271.480469 L 17.363281 263.125 C 19.242188 262.96875 21.96875 262.695312 25.539062 262.300781 C 29.109375 261.910156 31.597656 261.402344 33.011719 260.769531 C 35.367188 259.753906 37.070312 258.261719 38.128906 256.300781 C 39.191406 254.339844 39.71875 251.828125 39.71875 248.769531 L 39.71875 128.269531 C 39.71875 125.523438 39.324219 123.054688 38.542969 120.855469 C 37.757812 118.660156 35.914062 117.011719 33.011719 115.914062 C 30.03125 114.894531 27.070312 114.167969 24.128906 113.738281 C 21.183594 113.304688 18.65625 113.011719 16.539062 112.851562 L 16.539062 104.5 L 92.792969 104.5 C 108.324219 104.5 120.933594 108.246094 130.625 115.738281 C 140.3125 123.230469 145.15625 133.210938 145.15625 145.683594 "/>
<path style=" stroke:none;fill-rule:nonzero;fill:rgb(100%,100%,100%);fill-opacity:1;" d="M 428.28125 339.25 L 402.988281 274.449219 L 378.058594 339.25 Z M 495.464844 407.5 L 426.054688 407.5 L 426.054688 399.144531 C 432.175781 398.753906 437.253906 397.96875 441.292969 396.792969 C 445.332031 395.617188 447.351562 394.164062 447.351562 392.4375 C 447.351562 391.730469 447.273438 390.871094 447.117188 389.851562 C 446.960938 388.832031 446.726562 387.925781 446.410156 387.144531 L 432.582031 349.722656 L 373.96875 349.722656 C 371.765625 355.214844 369.980469 360 368.605469 364.078125 C 367.230469 368.15625 365.992188 371.921875 364.890625 375.375 C 363.871094 378.75 363.164062 381.492188 362.769531 383.613281 C 362.378906 385.730469 362.183594 387.457031 362.183594 388.789062 C 362.183594 391.929688 364.652344 394.359375 369.59375 396.085938 C 374.539062 397.8125 380.109375 398.832031 386.308594 399.144531 L 386.308594 407.5 L 323.421875 407.5 L 323.421875 399.144531 C 325.460938 398.988281 328.011719 398.539062 331.070312 397.792969 C 334.128906 397.046875 336.640625 396.046875 338.601562 394.792969 C 341.738281 392.671875 344.171875 390.457031 345.898438 388.144531 C 347.621094 385.828125 349.308594 382.632812 350.957031 378.550781 C 359.351562 357.605469 368.609375 334.070312 378.726562 307.945312 C 388.847656 281.824219 397.867188 258.5625 405.792969 238.164062 L 415.207031 238.164062 L 470.867188 382.199219 C 472.046875 385.257812 473.378906 387.730469 474.871094 389.613281 C 476.359375 391.496094 478.4375 393.339844 481.105469 395.144531 C 482.910156 396.242188 485.261719 397.164062 488.167969 397.910156 C 491.066406 398.65625 493.5 399.066406 495.464844 399.144531 Z M 495.464844 407.5 "/>
<path style=" stroke:none;fill-rule:nonzero;fill:rgb(100%,100%,100%);fill-opacity:1;" d="M 257.203125 210.199219 L 256.140625 210.589844 C 244.71875 214.746094 238.777344 227.488281 242.933594 238.910156 L 245.527344 246.039062 L 238.398438 248.632812 C 226.980469 252.789062 221.035156 265.535156 225.191406 276.953125 L 225.582031 278.019531 C 229.738281 289.441406 242.480469 295.382812 253.902344 291.226562 L 261.03125 288.632812 L 303.625 273.128906 L 288.121094 230.535156 L 285.527344 223.40625 C 281.371094 211.988281 268.625 206.042969 257.203125 210.199219 "/>
</g>
</svg>
